<?xml version="1.0" standalone="no"?>
<!DOCTYPE svg PUBLIC "-//W3C//DTD SVG 20010904//EN"
 "http://www.w3.org/TR/2001/REC-SVG-20010904/DTD/svg10.dtd">
<svg version="1.0" xmlns="http://www.w3.org/2000/svg"
 width="1000.000000pt" height="1000.000000pt" viewBox="0 0 1000.000000 1000.000000"
 preserveAspectRatio="xMidYMid meet">
<metadata>
Created by potrace 1.14, written by Peter Selinger 2001-2017
</metadata>
<g transform="translate(0.000000,1000.000000) scale(0.100000,-0.100000)"
fill="#000000" stroke="none">
<path d="M4739 9906 c-2 -2 -49 -7 -104 -10 -55 -4 -113 -9 -130 -10 -16 -2
-57 -7 -90 -10 -79 -9 -360 -54 -405 -66 -19 -5 -48 -11 -65 -13 -77 -11 -455
-118 -565 -159 -30 -11 -71 -26 -90 -33 -19 -8 -78 -30 -130 -51 -87 -34 -135
-55 -275 -119 -27 -13 -54 -23 -59 -23 -5 0 -12 -4 -15 -9 -3 -4 -35 -23 -71
-41 -36 -18 -92 -48 -125 -67 -33 -20 -72 -40 -87 -46 -16 -6 -28 -15 -28 -20
0 -5 -5 -9 -10 -9 -13 0 -247 -147 -274 -172 -11 -10 -26 -18 -33 -18 -7 0
-13 -4 -13 -9 0 -4 -21 -22 -48 -38 -26 -17 -56 -38 -67 -47 -19 -15 -65 -51
-128 -99 -16 -12 -47 -38 -69 -57 -22 -19 -50 -43 -62 -53 -160 -134 -406
-381 -540 -542 -33 -38 -66 -77 -75 -86 -9 -9 -23 -26 -31 -39 -8 -12 -19 -28
-25 -34 -5 -6 -23 -29 -40 -51 -16 -22 -34 -45 -40 -52 -29 -35 -35 -43 -35
-47 0 -3 -18 -29 -40 -58 -22 -29 -40 -57 -40 -61 0 -4 -9 -18 -21 -30 -11
-12 -34 -47 -51 -77 -18 -30 -35 -57 -38 -60 -25 -20 -262 -468 -320 -605 -5
-11 -20 -45 -33 -75 -25 -57 -81 -201 -82 -210 0 -3 -3 -9 -6 -15 -4 -5 -21
-55 -38 -110 -18 -55 -35 -107 -38 -115 -9 -21 -48 -159 -57 -197 -2 -10 -14
-56 -26 -103 -12 -47 -24 -94 -26 -105 -5 -26 -12 -59 -24 -120 -13 -67 -18
-97 -31 -180 -6 -38 -12 -80 -14 -91 -2 -12 -6 -48 -10 -80 -4 -33 -9 -70 -11
-84 -24 -154 -24 -949 0 -989 2 -3 7 -38 11 -76 7 -84 11 -114 26 -202 6 -38
12 -77 14 -88 1 -11 15 -76 30 -145 15 -69 28 -132 29 -140 3 -20 56 -220 65
-245 4 -11 32 -94 61 -185 30 -91 57 -169 60 -175 4 -5 15 -32 25 -60 10 -27
29 -74 42 -103 12 -29 23 -55 23 -58 0 -14 193 -396 237 -469 26 -44 57 -97
68 -117 11 -21 23 -38 27 -38 5 0 8 -5 8 -10 0 -12 134 -215 162 -244 10 -11
18 -23 18 -27 0 -6 71 -102 101 -138 7 -7 28 -34 47 -60 19 -25 43 -55 53 -66
19 -21 30 -34 119 -136 96 -110 310 -321 455 -448 64 -56 194 -159 290 -229
61 -45 115 -86 122 -92 7 -5 16 -10 20 -10 4 0 21 -11 37 -25 16 -14 33 -25
37 -25 4 0 14 -6 21 -13 13 -11 24 -18 81 -49 12 -7 24 -16 27 -19 5 -7 25
-19 185 -109 116 -65 452 -230 468 -230 3 0 22 -8 43 -17 22 -9 41 -17 44 -18
3 -1 16 -6 30 -12 14 -6 57 -22 95 -36 39 -14 79 -29 90 -33 11 -4 22 -8 25
-9 3 0 52 -16 110 -34 122 -38 141 -44 155 -47 100 -27 255 -67 270 -69 11 -1
40 -7 65 -13 25 -6 61 -13 80 -16 19 -3 46 -8 60 -11 61 -12 78 -15 120 -20
25 -3 56 -8 70 -10 14 -2 50 -7 80 -10 30 -3 71 -8 90 -10 214 -26 859 -27
999 0 9 1 43 6 76 9 33 4 89 12 125 18 36 5 81 12 100 15 68 9 328 64 415 87
33 9 67 18 75 20 140 33 461 144 625 216 22 10 69 30 105 46 36 15 68 33 72
39 4 5 8 7 8 2 0 -11 346 170 418 219 18 13 42 26 53 29 10 4 19 11 19 16 0 5
4 9 10 9 5 0 39 20 76 45 36 25 69 45 75 45 5 0 9 5 9 10 0 6 5 10 11 10 5 0
27 13 47 29 20 15 73 54 117 86 44 32 85 63 90 69 6 6 30 26 55 45 25 19 52
41 60 48 8 8 26 23 40 34 125 101 520 491 520 513 0 3 14 20 30 38 56 60 66
73 121 143 29 39 57 75 61 80 4 6 19 24 32 40 41 51 230 336 272 409 77 134
114 202 151 276 21 41 42 78 46 81 5 3 9 9 8 12 0 4 7 24 16 44 9 21 17 40 18
43 1 3 16 37 34 75 18 39 46 104 62 145 16 41 34 84 39 95 6 11 35 96 65 188
135 412 207 766 242 1197 15 186 7 760 -12 861 -2 10 -6 44 -10 76 -3 32 -7
69 -10 83 -2 14 -7 45 -10 70 -12 90 -51 300 -65 345 -5 17 -11 44 -13 60 -9
55 -102 379 -132 455 -8 19 -28 76 -46 125 -17 50 -40 110 -51 135 -11 25 -31
72 -45 105 -55 126 -227 470 -243 485 -3 3 -11 16 -18 30 -13 28 -10 23 -102
165 -36 55 -67 104 -69 109 -3 8 -90 131 -134 190 -37 50 -72 91 -79 94 -5 2
-8 8 -8 13 0 6 -9 20 -21 32 -11 12 -30 35 -42 50 -126 162 -443 483 -616 623
-13 10 -28 24 -35 29 -41 38 -205 165 -212 165 -5 0 -16 9 -24 20 -8 11 -19
20 -25 20 -6 0 -22 11 -37 25 -15 14 -31 25 -36 25 -5 0 -17 9 -27 20 -10 11
-22 20 -27 20 -5 0 -33 18 -63 40 -30 22 -58 40 -63 40 -5 0 -26 13 -48 30
-21 16 -43 30 -47 30 -5 0 -21 8 -35 19 -32 21 -155 89 -267 145 -44 23 -83
45 -87 51 -4 5 -8 7 -8 3 0 -4 -26 6 -57 21 -32 16 -76 36 -98 46 -22 9 -49
21 -60 26 -19 8 -75 31 -85 34 -3 1 -18 7 -35 14 -108 43 -401 143 -459 156
-12 3 -75 18 -141 35 -66 17 -131 33 -145 36 -14 3 -34 7 -45 9 -11 2 -54 11
-96 19 -86 17 -323 52 -414 61 -33 3 -87 8 -120 11 -67 7 -630 15 -636 10z"/>
</g>
</svg>
