<?xml version="1.0" standalone="no"?>
<!DOCTYPE svg PUBLIC "-//W3C//DTD SVG 20010904//EN"
 "http://www.w3.org/TR/2001/REC-SVG-20010904/DTD/svg10.dtd">
<svg version="1.0" xmlns="http://www.w3.org/2000/svg"
 width="446.000000pt" height="446.000000pt" viewBox="0 0 446.000000 446.000000"
 preserveAspectRatio="xMidYMid meet">
<metadata>
Created by potrace 1.14, written by Peter Selinger 2001-2017
</metadata>
<g transform="translate(0.000000,446.000000) scale(0.100000,-0.100000)"
fill="#000000" stroke="none">
<path d="M2784 4451 c-2 -2 -59 -5 -126 -7 -68 -1 -229 -5 -358 -9 -129 -3
-329 -8 -445 -10 -115 -2 -210 -5 -210 -6 0 0 -70 -2 -155 -4 -133 -2 -422 -9
-845 -20 -60 -2 -118 -3 -128 -4 -22 -1 -73 -50 -85 -82 -5 -13 -9 -83 -8
-156 1 -72 -1 -130 -5 -127 -4 2 -6 -277 -6 -621 1 -344 6 -625 10 -625 5 0 5
-5 1 -11 -7 -12 -7 -389 0 -397 3 -2 1 -14 -4 -27 -5 -13 -6 -25 -3 -28 2 -3
6 -333 8 -734 2 -400 4 -765 4 -810 1 -67 4 -83 16 -83 8 0 15 -9 15 -21 0
-11 9 -40 20 -64 17 -38 24 -44 62 -51 24 -4 47 -8 52 -8 5 -1 10 -9 12 -20 4
-28 14 -34 69 -42 112 -16 172 -1 234 60 20 20 39 34 42 32 2 -2 18 -6 34 -9
17 -3 37 -8 45 -11 8 -3 29 -7 45 -10 17 -2 71 -13 120 -25 50 -11 126 -27
170 -36 44 -10 89 -19 100 -22 11 -2 31 -6 45 -9 27 -6 33 -8 70 -17 14 -4 36
-9 50 -11 14 -3 68 -15 120 -26 201 -44 286 -62 305 -65 11 -2 40 -9 65 -16
25 -7 54 -13 65 -14 11 -1 27 -4 35 -8 8 -3 26 -7 39 -9 17 -2 32 -17 49 -47
14 -25 32 -52 41 -60 57 -55 81 -72 112 -76 19 -3 43 -7 54 -9 11 -3 26 -5 33
-5 6 -1 12 -10 12 -21 0 -22 20 -35 65 -43 17 -3 44 -9 60 -13 54 -12 70 -12
104 3 19 7 41 11 49 8 18 -7 127 -19 164 -18 29 1 106 38 190 91 65 42 123 72
144 77 13 3 36 7 52 10 15 3 34 8 42 11 8 3 26 8 40 10 14 3 66 14 115 26 176
40 163 39 220 13 48 -21 108 -23 131 -4 10 8 30 42 46 77 63 138 61 121 64
572 1 228 5 897 9 1485 12 1941 13 1820 -25 1912 -37 87 -55 115 -80 125 -25
10 -133 15 -480 23 -102 2 -185 4 -185 5 0 0 -54 2 -120 3 -66 1 -123 7 -127
12 -5 6 -8 6 -8 -1 0 -8 -11 -10 -33 -4 -18 4 -43 3 -55 -1 -13 -5 -21 -5 -18
-1 4 7 -132 10 -140 3z"/>
</g>
</svg>
