<?xml version="1.0" encoding="UTF-8"?> <svg xmlns="http://www.w3.org/2000/svg" width="216" height="40" viewBox="0 0 106 18" fill="none"> <path d="M0.13 3.5H5.59V4.332H3.289V10H2.431V4.332H0.13V3.5ZM10.1196 3.344C11.0469 3.344 11.8356 3.67333 12.4856 4.332C13.1443 4.99067 13.4736 5.79667 13.4736 6.75C13.4736 7.70333 13.1443 8.50933 12.4856 9.168C11.8356 9.82667 11.0469 10.156 10.1196 10.156C8.96692 10.156 8.09159 9.67933 7.49359 8.726V12.6H6.63559V3.5H7.49359V4.774C8.09159 3.82067 8.96692 3.344 10.1196 3.344ZM8.23459 8.583C8.72859 9.077 9.33525 9.324 10.0546 9.324C10.7739 9.324 11.3806 9.077 11.8746 8.583C12.3686 8.07167 12.6156 7.46067 12.6156 6.75C12.6156 6.03067 12.3686 5.424 11.8746 4.93C11.3806 4.42733 10.7739 4.176 10.0546 4.176C9.33525 4.176 8.72859 4.42733 8.23459 4.93C7.74059 5.424 7.49359 6.03067 7.49359 6.75C7.49359 7.46067 7.74059 8.07167 8.23459 8.583ZM20.4902 4.774V3.5H21.3482V10H20.4902V8.726C19.8922 9.67933 19.0169 10.156 17.8642 10.156C16.9369 10.156 16.1439 9.82667 15.4852 9.168C14.8352 8.50933 14.5102 7.70333 14.5102 6.75C14.5102 5.79667 14.8352 4.99067 15.4852 4.332C16.1439 3.67333 16.9369 3.344 17.8642 3.344C19.0169 3.344 19.8922 3.82067 20.4902 4.774ZM16.1092 8.583C16.6032 9.077 17.2099 9.324 17.9292 9.324C18.6486 9.324 19.2552 9.077 19.7492 8.583C20.2432 8.07167 20.4902 7.46067 20.4902 6.75C20.4902 6.03067 20.2432 5.424 19.7492 4.93C19.2552 4.42733 18.6486 4.176 17.9292 4.176C17.2099 4.176 16.6032 4.42733 16.1092 4.93C15.6152 5.424 15.3682 6.03067 15.3682 6.75C15.3682 7.46067 15.6152 8.07167 16.1092 8.583ZM27.7669 6.334V3.5H28.6249V10H27.7669V7.166H24.0229V10H23.1649V3.5H24.0229V6.334H27.7669ZM33.4683 10.156C32.489 10.156 31.6743 9.831 31.0243 9.181C30.3743 8.51367 30.0493 7.70333 30.0493 6.75C30.0493 5.788 30.3743 4.982 31.0243 4.332C31.6743 3.67333 32.489 3.344 33.4683 3.344C34.1096 3.344 34.686 3.5 35.1973 3.812C35.7086 4.11533 36.0813 4.527 36.3153 5.047L35.6133 5.45C35.44 5.06 35.1583 4.75233 34.7683 4.527C34.387 4.293 33.9536 4.176 33.4683 4.176C32.749 4.176 32.1423 4.42733 31.6483 4.93C31.1543 5.424 30.9073 6.03067 30.9073 6.75C30.9073 7.46067 31.1543 8.07167 31.6483 8.583C32.1423 9.077 32.749 9.324 33.4683 9.324C33.945 9.324 34.374 9.21133 34.7553 8.986C35.1453 8.76067 35.4486 8.44867 35.6653 8.05L36.3803 8.466C36.1116 8.986 35.7173 9.39767 35.1973 9.701C34.6773 10.0043 34.101 10.156 33.4683 10.156ZM90.3338 3.5V9.168H91.3738V11.742H90.5158V10H85.0038V3.5H85.8618V9.168H89.4758V3.5H90.3338ZM93.5297 8.505L97.4037 3.5H98.1317V10H97.2737V4.995L93.3997 10H92.6717V3.5H93.5297V8.505ZM101.987 3.5H104.626V10H103.768V7.504H102.65L100.648 10H99.5561L101.61 7.478C101.081 7.4 100.648 7.18333 100.31 6.828C99.9808 6.464 99.8161 6.02633 99.8161 5.515C99.8161 4.93433 100.024 4.45333 100.44 4.072C100.873 3.69067 101.389 3.5 101.987 3.5ZM101.987 6.698H103.768V4.332H101.987C101.614 4.332 101.302 4.44467 101.051 4.67C100.8 4.88667 100.674 5.16833 100.674 5.515C100.674 5.86167 100.8 6.14767 101.051 6.373C101.302 6.58967 101.614 6.698 101.987 6.698Z" fill="#000000"></path> <path d="M42.5521 9.038V10.065H41.3691V9.038C40.0691 8.94267 39.0248 8.58733 38.2361 7.972C37.4561 7.348 37.0661 6.50733 37.0661 5.45C37.0661 4.39267 37.4561 3.552 38.2361 2.928C39.0248 2.31267 40.0691 1.95733 41.3691 1.862V0.834999H42.5521V1.862C43.8695 1.95733 44.9138 2.31267 45.6851 2.928C46.4738 3.552 46.8681 4.39267 46.8681 5.45C46.8681 6.50733 46.4738 7.348 45.6851 7.972C44.9138 8.58733 43.8695 8.94267 42.5521 9.038ZM42.5521 2.967V7.933C43.5488 7.86367 44.3158 7.621 44.8531 7.205C45.3905 6.78033 45.6591 6.19533 45.6591 5.45C45.6591 4.70467 45.3905 4.124 44.8531 3.708C44.3158 3.28333 43.5488 3.03633 42.5521 2.967ZM39.0681 3.708C38.5308 4.124 38.2621 4.70467 38.2621 5.45C38.2621 6.19533 38.5308 6.776 39.0681 7.192C39.6055 7.608 40.3725 7.85067 41.3691 7.92V2.967C40.3725 3.03633 39.6055 3.28333 39.0681 3.708ZM47.7079 5.45C47.7079 4.13267 48.1629 3.019 49.0729 2.109C49.9829 1.19033 51.0965 0.730999 52.4139 0.730999C53.7312 0.730999 54.8449 1.19033 55.7549 2.109C56.6735 3.019 57.1329 4.13267 57.1329 5.45C57.1329 6.75867 56.6735 7.87233 55.7549 8.791C54.8449 9.70967 53.7312 10.169 52.4139 10.169C51.0965 10.169 49.9829 9.70967 49.0729 8.791C48.1629 7.86367 47.7079 6.75 47.7079 5.45ZM55.9239 5.45C55.9239 4.44467 55.5859 3.604 54.9099 2.928C54.2512 2.24333 53.4192 1.901 52.4139 1.901C51.4172 1.901 50.5809 2.24333 49.9049 2.928C49.2375 3.61267 48.9039 4.45333 48.9039 5.45C48.9039 6.438 49.2375 7.27867 49.9049 7.972C50.5809 8.648 51.4172 8.986 52.4139 8.986C53.4192 8.986 54.2512 8.648 54.9099 7.972C55.5859 7.27867 55.9239 6.438 55.9239 5.45ZM58.5863 0.899999H61.8883C62.7203 0.899999 63.418 1.18167 63.9813 1.745C64.5447 2.30833 64.8263 3.00167 64.8263 3.825C64.8263 4.64833 64.5447 5.34167 63.9813 5.905C63.418 6.46833 62.7203 6.75 61.8883 6.75H59.7953V10H58.5863V0.899999ZM59.7953 5.619H61.8883C62.3997 5.619 62.8157 5.45 63.1363 5.112C63.4657 4.75667 63.6303 4.32767 63.6303 3.825C63.6303 3.305 63.4657 2.876 63.1363 2.538C62.807 2.2 62.391 2.031 61.8883 2.031H59.7953V5.619ZM73.4043 0.899999H74.7693V10H73.5733V2.889L70.5963 7.842H70.4403L67.4633 2.902V10H66.2543V0.899999H67.6193L70.5183 5.71L73.4043 0.899999ZM83.9952 10H82.7082L81.9672 7.959H77.8722L77.1312 10H75.8442L79.2372 0.899999H80.6022L83.9952 10ZM79.9132 2.343L78.2882 6.828H81.5512L79.9132 2.343Z" fill="rgb(251, 125, 79)"></path> <path d="M19.185 16.605V17H18.835V16.605C18.325 16.5783 17.9167 16.45 17.61 16.22C17.3033 15.9833 17.15 15.66 17.15 15.25C17.15 14.84 17.3033 14.5167 17.61 14.28C17.9167 14.05 18.325 13.9217 18.835 13.895V13.5H19.185V13.895C19.6983 13.9217 20.105 14.05 20.405 14.28C20.715 14.5167 20.87 14.84 20.87 15.25C20.87 15.6633 20.715 15.9867 20.405 16.22C20.105 16.45 19.6983 16.5783 19.185 16.605ZM18.835 16.285V14.215C18.4183 14.235 18.0917 14.335 17.855 14.515C17.6183 14.6917 17.5 14.9367 17.5 15.25C17.5 15.5633 17.6183 15.81 17.855 15.99C18.0917 16.1667 18.4183 16.265 18.835 16.285ZM19.185 14.215V16.285C19.6017 16.265 19.9283 16.1667 20.165 15.99C20.4017 15.81 20.52 15.5633 20.52 15.25C20.52 14.9367 20.4017 14.6917 20.165 14.515C19.9283 14.335 19.6017 14.235 19.185 14.215ZM26.9186 17H26.5686V14.15L24.6186 17H24.3186V13.5H24.6686V16.35L26.6186 13.5H26.9186V17ZM30.317 13.5H32.817V13.83H31.742V17H31.392V13.83H30.317V13.5ZM38.4672 15.035V13.5H38.8172V17H38.4672V15.365H36.5672V17H36.2172V13.5H36.5672V15.035H38.4672ZM42.8656 15.4V16.67H44.5656V17H42.5156V13.5H44.5406V13.83H42.8656V15.07H44.4156V15.4H42.8656ZM49.6776 17.06C49.1442 17.06 48.7059 16.885 48.3626 16.535C48.0159 16.1817 47.8426 15.7533 47.8426 15.25C47.8426 14.7467 48.0159 14.3183 48.3626 13.965C48.7059 13.615 49.1442 13.44 49.6776 13.44C49.9976 13.44 50.2926 13.5183 50.5626 13.675C50.8326 13.8283 51.0426 14.0367 51.1926 14.3L50.8826 14.48C50.7726 14.2667 50.6092 14.0967 50.3926 13.97C50.1759 13.8433 49.9376 13.78 49.6776 13.78C49.2376 13.78 48.8809 13.9217 48.6076 14.205C48.3309 14.4917 48.1926 14.84 48.1926 15.25C48.1926 15.66 48.3309 16.0083 48.6076 16.295C48.8809 16.5783 49.2376 16.72 49.6776 16.72C49.9376 16.72 50.1759 16.6567 50.3926 16.53C50.6092 16.4033 50.7726 16.2333 50.8826 16.02L51.1926 16.195C51.0492 16.4583 50.8409 16.6683 50.5676 16.825C50.2942 16.9817 49.9976 17.06 49.6776 17.06ZM58.8182 13.5H61.3182V17H60.9682V13.83H59.1682V17H58.8182V13.5ZM65.0189 13.5H66.2689C66.5823 13.5 66.8439 13.605 67.0539 13.815C67.2639 14.025 67.3689 14.2867 67.3689 14.6C67.3689 14.9133 67.2639 15.175 67.0539 15.385C66.8439 15.595 66.5823 15.7 66.2689 15.7H65.3689V17H65.0189V13.5ZM65.3689 15.37H66.2689C66.4856 15.37 66.6639 15.2983 66.8039 15.155C66.9473 15.0117 67.0189 14.8267 67.0189 14.6C67.0189 14.3767 66.9473 14.1933 66.8039 14.05C66.6639 13.9033 66.4856 13.83 66.2689 13.83H65.3689V15.37ZM73.7388 16.535C73.3888 16.885 72.9604 17.06 72.4538 17.06C71.9471 17.06 71.5188 16.885 71.1688 16.535C70.8188 16.1783 70.6438 15.75 70.6438 15.25C70.6438 14.7467 70.8188 14.32 71.1688 13.97C71.5188 13.6167 71.9471 13.44 72.4538 13.44C72.9604 13.44 73.3888 13.6167 73.7388 13.97C74.0888 14.32 74.2638 14.7467 74.2638 15.25C74.2638 15.75 74.0888 16.1783 73.7388 16.535ZM70.9938 15.25C70.9938 15.6633 71.1338 16.0117 71.4138 16.295C71.6938 16.5783 72.0404 16.72 72.4538 16.72C72.8671 16.72 73.2138 16.5783 73.4938 16.295C73.7738 16.0117 73.9138 15.6633 73.9138 15.25C73.9138 14.84 73.7738 14.4933 73.4938 14.21C73.2138 13.9233 72.8671 13.78 72.4538 13.78C72.0404 13.78 71.6938 13.9233 71.4138 14.21C71.1338 14.4933 70.9938 14.84 70.9938 15.25ZM78.1123 15.4V16.67H79.8123V17H77.7623V13.5H79.7873V13.83H78.1123V15.07H79.6623V15.4H78.1123ZM84.0337 15.2L85.7637 17H85.3037L83.6637 15.305V17H83.3137V13.5H83.6637V15.1L85.2537 13.5H85.7137L84.0337 15.2ZM88.8141 13.5H91.3141V13.83H90.2391V17H89.8891V13.83H88.8141V13.5Z" fill="#000000"></path> </svg> 