<svg width="64" height="59" viewBox="0 0 64 59" fill="none" xmlns="http://www.w3.org/2000/svg">
<g clip-path="url(#clip0_100_1492)">
<path d="M0 51.9956C0 47.9912 2.9445 44.9911 6.94673 44.9911C10.0645 44.9911 12.5463 46.8864 13.3932 49.6925H11.0651C10.354 48.1062 8.8335 47.0804 6.92887 47.0804C4.17733 47.0804 2.19587 49.1697 2.19587 51.9956C2.19587 54.8214 4.17733 56.9107 6.92887 56.9107C8.8335 56.9107 10.354 55.8849 11.0651 54.2987H13.3932C12.5463 57.1048 10.0645 59 6.94673 59C2.9445 59 0 56.0017 0 51.9956Z" fill="#E0B16D"/>
<path d="M24.0725 56.6771V58.7664H15.7607V45.2228H17.9352V56.6771H24.0743H24.0725Z" fill="#E0B16D"/>
<path d="M26.2271 45.2228H28.4015V58.7664H26.2271V45.2228Z" fill="#E0B16D"/>
<path d="M42.7382 45.2228V58.7664H40.1599L33.424 48.2984L33.6349 53.0968V58.7664H31.4604V45.2228H34.019L40.7531 55.6711L40.5602 50.8925V45.2228H42.7346H42.7382Z" fill="#E0B16D"/>
<path d="M45.7969 45.2228H47.9713V58.7664H45.7969V45.2228Z" fill="#E0B16D"/>
<path d="M50.6084 51.9956C50.6084 47.9912 53.5529 44.9911 57.5551 44.9911C60.6729 44.9911 63.1547 46.8864 64.0016 49.6925H61.6735C60.9624 48.1062 59.4419 47.0804 57.5373 47.0804C54.7857 47.0804 52.8043 49.1697 52.8043 51.9956C52.8043 54.8214 54.7857 56.9107 57.5373 56.9107C59.4419 56.9107 60.9624 55.8849 61.6735 54.2987H64.0016C63.1547 57.1048 60.6729 59 57.5551 59C53.5529 59 50.6084 56.0017 50.6084 51.9956Z" fill="#E0B16D"/>
<path d="M54.995 36.1578C54.7485 36.1434 54.5001 36.1308 54.2535 36.12C52.9081 36.0608 51.8343 35.4985 50.9928 34.4349C50.4103 33.6984 50.0691 32.8361 49.6581 32.0115C48.8648 30.4144 48.1108 28.7994 47.3336 27.1951C46.5028 25.4795 45.6577 23.771 44.8286 22.0554C44.4213 21.2129 44.0246 20.3649 43.3206 19.7146C42.3755 18.8415 41.2641 18.3852 39.9795 18.3726C39.0522 18.3636 38.1267 18.369 37.1994 18.3636C37.1011 18.3636 37.0046 18.3439 36.9064 18.3349C38.0856 18.1337 39.2184 17.3414 40.3047 16.86C41.9181 16.1432 43.2921 15.1282 44.3212 13.6712C45.0806 12.5987 45.5576 11.4095 45.7327 10.1106C45.8471 9.26267 45.8238 8.41293 45.672 7.5614C45.4361 6.23021 44.8894 5.05352 44.0657 3.99898C43.1813 2.8672 42.0664 2.03184 40.7907 1.3887C39.8294 0.903647 38.8163 0.549741 37.7783 0.350332C36.6312 0.129365 34.8892 0.0341511 33.7206 0.0233722C26.2397 -0.0107609 18.405 0.0107969 10.9222 0.0233722C10.6399 0.0233722 10.1075 0.206613 10.1128 0.246136C10.1861 0.763522 10.6256 0.56052 10.9169 0.56052C15.2979 0.569502 15.3729 0.569502 22.1821 0.569502L22.1588 0.666512C22.5912 0.680884 23.0308 0.767115 23.4506 0.883886C24.4101 1.15336 25.1301 1.7965 25.768 2.52587C27.0884 4.03491 27.7352 5.84576 27.9817 7.80932C28.1818 9.39202 28.1086 10.9657 27.7244 12.5215C27.3421 14.0683 26.7078 15.4839 25.6251 16.6678C24.905 17.4564 24.0599 18.087 22.9986 18.2864C22.3965 18.3996 21.764 18.3439 21.144 18.3618C21.0475 18.3654 20.951 18.3618 20.8545 18.3618C20.8545 18.3942 20.851 18.4283 20.8492 18.4606C20.9332 18.4732 21.0171 18.4912 21.1029 18.5002C21.596 18.5523 22.0999 18.5559 22.5805 18.6636C23.6847 18.9098 24.5316 19.5834 25.1212 20.5194C25.6054 21.2883 25.9824 22.1291 26.3844 22.9483C27.2313 24.6783 28.0621 26.4173 28.9019 28.1509C29.7273 29.8575 30.56 31.5624 31.3801 33.2726C31.766 34.0757 32.2752 34.7727 32.9952 35.3062C33.9279 35.9979 34.9749 36.2817 36.1273 36.2763C38.543 36.2638 40.9604 36.2763 43.3778 36.2781C43.4618 36.2781 43.5476 36.262 43.6583 36.2494C43.6172 36.1901 43.6065 36.1632 43.5958 36.1614C43.3492 36.147 43.1009 36.1344 42.8543 36.1236C41.5089 36.0644 40.4351 35.5021 39.5936 34.4385C39.0111 33.702 38.6698 32.8397 38.2589 32.0151C37.4656 30.418 36.7116 28.803 35.9344 27.1987C35.1036 25.4831 34.2584 23.7746 33.4294 22.059C33.022 21.2164 32.6254 20.3685 31.9214 19.7182C30.9763 18.8451 29.8649 18.3888 28.5803 18.3762C27.653 18.3672 26.7275 18.3726 25.8002 18.3672C25.7019 18.3672 25.6054 18.3475 25.5071 18.3385C26.6864 18.1373 27.8191 17.345 28.9055 16.8636C30.5189 16.1468 31.8928 15.1318 32.922 13.6748C33.6813 12.6023 34.1584 11.4131 34.3335 10.1142C34.4478 9.26626 34.4246 8.41653 34.2727 7.565C34.0369 6.2338 33.4902 5.05711 32.6665 4.00258C31.7821 2.87079 30.6672 2.03543 29.3914 1.39229C28.7161 1.05096 28.0157 0.777894 27.2992 0.574892C28.8054 0.574892 30.1615 0.576688 31.2818 0.578485C32.0429 0.578485 32.8076 0.605432 33.5652 0.670105C33.5652 0.670105 33.5795 0.670105 33.5866 0.670105C33.6849 0.679087 33.7832 0.684477 33.8797 0.695256V0.691663C34.2084 0.727592 34.5372 0.797655 34.8552 0.885683C35.8147 1.15515 36.5347 1.79829 37.1726 2.52767C38.493 4.03671 39.1397 5.84756 39.3863 7.81111C39.5864 9.39381 39.5132 10.9675 39.129 12.5233C38.7467 14.07 38.1124 15.4857 37.0296 16.6696C36.3096 17.4582 35.4645 18.0888 34.4032 18.2882C33.8011 18.4014 33.1686 18.3457 32.5486 18.3636C32.4521 18.3672 32.3556 18.3636 32.2591 18.3636C32.2591 18.396 32.2555 18.4301 32.2538 18.4624C32.3377 18.475 32.4217 18.493 32.5075 18.502C33.0006 18.5541 33.5045 18.5577 33.9851 18.6654C35.0893 18.9116 35.9362 19.5852 36.5258 20.5212C37.01 21.2901 37.387 22.1309 37.789 22.9501C38.6359 24.6801 39.4667 26.4191 40.3065 28.1527C41.1319 29.8593 41.9645 31.5642 42.7846 33.2744C43.1706 34.0774 43.6798 34.7745 44.3998 35.308C45.3325 35.9997 46.3795 36.2835 47.5319 36.2781C49.9476 36.2656 52.365 36.2781 54.7824 36.2799C54.8664 36.2799 54.9521 36.2638 55.0629 36.2512C55.0218 36.1919 55.0111 36.165 55.0004 36.1632L54.995 36.1578Z" fill="#E0B16D"/>
<path d="M24.0314 35.6475C23.8474 35.5792 23.624 35.626 23.4311 35.5739C22.7593 35.3906 22.0356 35.2936 21.4407 34.9649C20.2454 34.3037 19.8112 33.154 19.8112 31.821C19.8112 24.3279 19.8166 16.833 19.8005 9.33986C19.8005 8.78116 19.6182 8.22604 19.57 7.66375C19.4038 7.23618 19.2502 6.80323 19.1054 6.36669C18.9822 6.29124 18.8624 6.09362 18.6623 5.7487C18.2568 5.04448 17.7618 4.71572 16.8846 4.73189C13.5934 4.79118 14.2563 4.75525 10.9634 4.75525C10.8151 4.75525 10.6597 4.7283 10.5221 4.76782C10.4006 4.80195 10.3005 4.90974 10.1915 4.98519C10.297 5.08759 10.3899 5.25467 10.5114 5.28161C10.8526 5.35707 11.2064 5.37144 11.553 5.41815C13.4237 5.67684 14.6565 7.05115 14.6583 8.95542C14.669 16.6354 14.669 24.3153 14.6547 31.9953C14.653 32.9474 14.3617 33.8385 13.6488 34.5139C12.8412 35.2774 11.8371 35.5397 10.7526 35.6062C10.5542 35.6188 10.3684 35.8397 10.1772 35.9637C10.3702 36.0481 10.5632 36.2062 10.7579 36.208C13.5702 36.2242 16.3825 36.2188 19.1948 36.2188C21.9695 36.2188 20.7885 36.2188 23.5633 36.2188C23.7116 36.2188 23.8688 36.2475 24.0046 36.2062C24.1225 36.1721 24.219 36.0571 24.3244 35.9799C24.2279 35.8649 24.1529 35.6942 24.0314 35.6475Z" fill="#E0B16D"/>
</g>
<defs>
<clipPath id="clip0_100_1492">
<rect width="64" height="59" fill="white"/>
</clipPath>
</defs>
</svg>
